HIERARCHY
ROOT Hips
{
   OFFSET 0.00000 0.00000 0.00000
   CHANNELS 6 Xposition Yposition Zposition Zrotation Xrotation Yrotation
   JOINT RightUpLeg
   {
      OFFSET -8.945800 -8.667070 0.101652
      CHANNELS 3 Zrotation Xrotation Yrotation
      JOINT RightLeg
      {
         OFFSET 0.000000 -44.422697 1.372700
         CHANNELS 3 Zrotation Xrotation Yrotation
         JOINT RightFoot
         {
            OFFSET 0.253549 -42.092399 -1.460590
            CHANNELS 3 Zrotation Xrotation Yrotation
            JOINT RightToes
            {
               OFFSET 0.040000 -4.415090 8.499099
               CHANNELS 3 Zrotation Xrotation Yrotation
               End Site
               {
                  OFFSET -0.080000 -0.137448 9.779790
               }
            }
         }
      }
   }
   JOINT Spine
   {
      OFFSET 0.000000 11.890501 0.000000
      CHANNELS 3 Zrotation Xrotation Yrotation
      JOINT Spine1
      {
         OFFSET 0.000000 25.657401 0.127663
         CHANNELS 3 Zrotation Xrotation Yrotation
         JOINT HEad
         {
            OFFSET 0.000000 8.734161 0.011341
            CHANNELS 3 Zrotation Xrotation Yrotation
            End Site
            {
               OFFSET -0.290000 12.774200 2.513950
            }
         }
         JOINT LeftShoulder1
         {
            OFFSET 8.990000 -0.362252 -0.220000
            CHANNELS 3 Zrotation Xrotation Yrotation
            JOINT LeftArm
            {
               OFFSET 10.282700 -0.003380 0.322123
               CHANNELS 3 Zrotation Xrotation Yrotation
               JOINT LeftForeArm
               {
                  OFFSET 32.766900 0.099144 -1.424340
                  CHANNELS 3 Zrotation Xrotation Yrotation
                  JOINT LeftHand
                  {
                     OFFSET 27.564301 0.085362 1.022160
                     CHANNELS 3 Zrotation Xrotation Yrotation
                     End Site
                     {
                        OFFSET 16.744301 -0.600000 1.502910
                     }
                  }
               }
            }
         }
         JOINT RightShoulder
         {
            OFFSET -8.990000 -0.362252 -0.220000
            CHANNELS 3 Zrotation Xrotation Yrotation
            JOINT RightArm
            {
               OFFSET -10.282700 -0.003380 0.322123
               CHANNELS 3 Zrotation Xrotation Yrotation
               JOINT RightForeArm
               {
                  OFFSET -32.897098 0.099144 -1.424340
                  CHANNELS 3 Zrotation Xrotation Yrotation
                  JOINT RightHand
                  {
                     OFFSET -27.492101 0.085362 1.022160
                     CHANNELS 3 Zrotation Xrotation Yrotation
                     End Site
                     {
                        OFFSET -16.631201 -0.600000 1.502910
                     }
                  }
               }
            }
         }
      }
   }
   JOINT LeftUpLeg
   {
      OFFSET 8.945800 -8.667070 0.101652
      CHANNELS 3 Zrotation Xrotation Yrotation
      JOINT LeftLeg
      {
         OFFSET 0.000000 -44.422697 1.372700
         CHANNELS 3 Zrotation Xrotation Yrotation
         JOINT LeftFoot
         {
            OFFSET -0.253549 -42.092399 -1.460590
            CHANNELS 3 Zrotation Xrotation Yrotation
            JOINT LeftToes
            {
               OFFSET -0.040000 -4.415090 8.499099
               CHANNELS 3 Zrotation Xrotation Yrotation
               End Site
               {
                  OFFSET 0.080000 -0.047448 9.779790
               }
            }
         }
      }
   }
}
MOTION
Frames: 14
Frame Time: 0.016667
4.38462 102.785 -43.2874 16.0283 15.2482 162.569 12.2122 25.7308 -10.1763 21.2467 31.487 -28.1912 -30.6567 2.74403 -1.61041 0.0462048 0.000533403 0.662642 3.20573 11.2624 -4.18917 -2.69935e-007 -2.24648e-009 -0.0171924 9.31947 -1.10455 -25.974 7.95139e-016 7.95139e-016 -3.18055e-015 -140.564 -41.3421 -105.192 -123.524 30.5897 4.14748 27.2557 22.0406 -26.2236 15.0535 8.64654 -0.893453 130.633 -33.8074 103.817 51.7392 50.0762 34.5494 14.9413 28.9858 4.39509 16.3875 -9.16004 -24.3539 -37.6891 12.3356 75.857 20.5687 -2.96985 1.4612 -1.80354e-010 1.55988e-007 -4.8394e-009 
4.69423 103.919 -43.15 19.0861 18.6313 167.284 14.3114 22.4954 -16.4734 24.2744 37.7916 -21.0561 -28.2115 2.11042 -1.95423 0.0462048 0.000533403 0.662642 5.54622 14.7849 -7.83811 1.39851e-006 0.00556028 -0.0171924 11.4994 4.33686 -25.806 1.39149e-015 -3.97569e-015 -3.18055e-015 -138.308 -40.9025 -100.638 -124.34 31.9413 4.24502 27.3418 22.2235 -25.887 18.2301 8.20669 -3.27321 128.167 -36.4696 103.219 51.1101 49.9433 35.9947 17.3644 28.8628 -23.9011 17.6501 -6.72138 -30.5261 -37.1496 11.6112 75.3562 23.3042 -2.82669 1.67506 -1.80353e-010 1.55988e-007 -4.8394e-009 
4.84045 105.088 -43.1448 21.9525 21.0633 170.561 13.9078 18.0546 -21.8517 27.1808 43.6472 -15.2934 -29.5765 1.45004 -2.00783 0.0462048 0.000533403 0.662642 7.73813 17.4864 -10.717 2.67014e-006 0.00981031 -0.0171711 14.0733 10.9664 -25.4462 1.98785e-016 1.59028e-015 -0 -135.597 -40.3923 -96.1454 -124.958 32.8113 4.40726 27.582 22.1736 -25.8183 21.7428 8.02823 -6.14655 125.642 -38.7038 102.488 47.7348 48.9895 36.0895 18.2378 29.0238 -1.39002 19.4226 -5.17963 -35.6842 -36.7691 11.0083 75.472 25.5854 -2.96439 2.1624 -1.80354e-010 1.55988e-007 -4.8394e-009 
4.78977 106.329 -43.3934 25.1396 21.9152 171.838 10.2226 12.7707 -26.2698 30.9115 49.6677 -11.5046 -29.9925 0.0111674 -1.55271 0.0462048 0.000533403 0.662642 9.7154 19.5603 -12.9058 4.26947e-006 0.0152003 -0.0171108 16.9469 17.1439 -25.5738 1.19271e-015 -1.59028e-015 3.18055e-015 -132.573 -39.9856 -91.5271 -121.003 30.1944 2.85392 24.6165 25.2519 -27.7928 25.5501 8.00659 -9.07334 123.188 -40.8218 101.874 46.0414 48.4221 36.7067 17.026 29.1722 -10.6443 21.6895 -4.69791 -40.0148 -36.2863 10.5255 76.6061 27.0106 -3.12119 3.17523 -1.80353e-010 1.55988e-007 -4.8394e-009 
4.53041 107.432 -43.816 28.8149 21.5934 171.418 4.98285 7.05714 -30.9839 35.0749 55.3064 -9.38615 -31.8447 -0.718597 -0.416607 0.0462048 0.000533403 0.662642 11.4753 21.1716 -14.4961 0.00417186 0.0205103 -0.0170167 20.1297 22.8169 -26.1321 -2.38542e-015 1.19271e-015 -0 -129.127 -39.5339 -86.6926 -119.511 29.1219 2.50681 23.3348 26.8324 -28.7938 29.573 8.08922 -12.098 120.798 -42.8074 101.308 45.3257 48.1738 37.8329 17.3772 29.3174 1.02544 24.4077 -4.91088 -43.7807 -36.0718 10.2377 78.8258 27.6489 -3.36629 4.69118 -1.80353e-010 1.55988e-007 -4.83939e-009 
4.08615 108.304 -44.3378 32.9537 20.4712 169.695 -1.12863 1.081 -36.4948 39.69 60.4179 -8.89812 -33.4797 -0.457039 1.17116 0.0462048 0.000533403 0.662642 13.0648 22.4493 -15.583 0.0095498 0.0262504 -0.0168942 23.586 27.9358 -27.0899 -6.98231e-015 -1.86361e-015 -0 -125.256 -38.8805 -81.665 -119.278 29.0633 2.6237 33.4562 17.5821 -18.6251 33.7282 8.21165 -15.0496 118.539 -44.781 100.904 44.8186 48.0318 39.142 16.7319 29.4297 -5.52639 27.8139 -5.37293 -47.163 -36.1308 9.159 83.7426 28.1716 -3.28769 6.54747 -1.8035e-010 1.55988e-007 -4.8394e-009 
3.51678 108.849 -44.9022 37.4145 18.8889 167.09 -7.41161 -4.97688 -43.0026 44.5715 64.9298 -9.87712 -35.2316 0.916196 2.98629 0.0462048 0.000533403 0.662642 15.0258 24.5812 -16.375 0.0217457 0.124761 -0.0167486 26.8329 31.2979 -27.8361 -4.41391e-032 3.97569e-016 6.36111e-015 -121.944 -37.1744 -77.7982 -119.535 29.6597 2.80932 28.097 22.866 -22.5643 37.5724 7.31827 -17.4316 116.417 -46.4734 100.513 41.5091 47.4933 38.6816 16.3314 30.0108 5.9992 31.9426 -5.73893 -50.2661 -36.5074 7.60248 90.6421 28.2984 -2.74607 8.55325 -1.80353e-010 1.55988e-007 -4.83939e-009 
2.89332 109.088 -45.4426 41.9886 17.1498 163.997 -13.64 -10.9386 -50.1531 49.4883 68.6747 -12.1987 -36.3759 3.20419 4.67434 0.0462048 0.000533403 0.662642 17.5318 27.3477 -17.0839 0.0311866 0.122311 -0.0165853 29.5439 33.3846 -28.2567 -3.18055e-015 2.38542e-015 -0 -115.024 -34.3298 -70.0088 -114.015 31.8369 -0.395571 28.1743 21.3064 -23.9971 40.897 5.86595 -19.1177 114.473 -47.9892 100.205 39.602 47.2226 39.4621 15.9052 29.7092 -13.2286 36.2616 -5.61224 -53.102 -36.8778 6.51267 97.0103 27.622 -2.02501 10.5512 -1.80357e-010 1.55988e-007 -4.8394e-009 
2.27887 109.049 -45.8993 46.4286 15.5273 160.762 -19.9369 -16.6562 -57.3563 54.8185 71.5724 -16.2565 -36.8555 5.92782 5.89033 0.0462048 0.000533403 0.662642 20.5755 30.5697 -17.8719 0.0352533 0.114941 -0.0164095 31.5151 34.3876 -28.2011 5.56597e-015 0 3.18055e-015 -110.77 -30.65 -65.8532 -110.484 33.3614 -3.5075 23.2686 25.2544 -27.5485 43.5181 4.0045 -19.9913 112.742 -49.4028 99.9142 38.387 46.9692 40.991 15.5447 30.1259 6.79061 40.358 -4.865 -55.5814 -37.0717 5.91243 102.674 26.4554 -1.19221 12.3302 -1.80355e-010 1.55988e-007 -4.8394e-009 
1.75349 108.745 -46.2553 50.495 14.2865 157.678 -26.9047 -21.9628 -64.0888 62.1432 73.4346 -23.4932 -36.53 8.59755 6.37816 0.0462048 0.000533403 0.662642 24.099 34.1158 -18.8935 0.0372928 0.109471 -0.0162267 32.6665 34.5291 -27.6108 -2.38542e-015 4.77083e-015 -9.54166e-015 -108.353 -26.6467 -64.1659 -107.785 34.5661 -6.38916 24.324 24.0389 -26.8447 45.4024 1.92205 -19.9075 111.277 -50.8165 99.7301 37.2809 46.4082 42.5929 15.3603 29.8122 -5.48026 43.8706 -3.48137 -57.6087 -36.9062 5.81146 107.433 25.0861 -0.224533 13.7334 -1.80344e-010 1.55988e-007 -4.8394e-009 
1.31366 108.268 -46.4187 53.9628 13.6823 154.997 -33.4693 -27.1598 -70.2147 73.2963 73.7213 -35.5031 -45.8327 5.87411 4.77878 0.0462048 0.000533403 0.662642 27.0413 36.8511 -19.622 0.00571583 0.00677039 -0.016042 33.9706 35.0422 -27.4534 3.97569e-015 0 -0 -106.221 -22.87 -62.7365 -105.565 35.664 -8.98285 21.6612 26.1037 -27.9764 46.8574 0.574518 -19.9919 110.079 -52.0967 99.5379 36.2777 45.5638 44.2838 15.0401 30.0369 6.31038 46.4358 -1.8312 -57.9526 -36.1866 6.94572 110.277 23.9255 1.00347 14.6033 -1.80357e-010 1.55988e-007 -4.8394e-009 
1.02825 107.809 -46.311 56.6486 13.9886 152.946 -43.7581 -31.0419 -75.6279 79.2187 71.3873 -44.1363 -41.289 7.84533 3.11782 0.0462048 0.000533403 0.662642 29.2431 38.8964 -20.0043 0.00499706 0.0046004 -0.0158609 35.2768 35.6971 -27.5324 3.18055e-015 1.59028e-015 3.18055e-015 -104.471 -19.2652 -61.6083 -103.378 36.6595 -11.4655 22.6379 25.1672 -27.2648 47.7996 -0.311903 -20.0311 109.099 -53.226 99.3628 35.1412 44.2983 45.7222 14.8374 29.7626 -0.955431 48.0536 0.120618 -56.7815 -34.7657 8.74573 110.915 23.2861 2.42519 15.0034 -1.80344e-010 1.55988e-007 -4.83939e-009 
0.85122 107.455 -45.927 58.4239 15.5132 151.736 -55.7828 -33.4052 -80.2542 85.193 67.4317 -53.2097 -40.1705 6.39844 1.08126 0.0462048 0.000533403 0.662642 30.6312 40.3691 -20.0151 0.00477904 0.0037654 -0.0156887 35.416 35.48 -27.5184 1.59028e-015 1.59028e-015 3.18055e-015 -102.983 -15.9114 -60.552 -101.226 37.5866 -13.8505 21.0586 26.1735 -27.5479 48.3674 -0.729928 -20.185 108.271 -54.0349 99.2262 33.956 42.7834 47.059 14.6552 30.1985 6.26364 48.529 2.60436 -55.3053 -32.6348 10.1935 110.157 23.2574 3.66117 14.9887 -1.80347e-010 1.55988e-007 -4.8394e-009 
0.789486 107.22 -45.2383 59.4794 18.1605 151.336 -68.3117 -33.5403 -82.515 83.7353 60.8183 -55.6373 -32.5017 7.40614 -0.285371 0.0462048 0.000533403 0.662642 31.2177 41.3626 -19.6644 0.00448646 0.00341792 -0.0155307 34.5892 34.5326 -27.4734 -5.56597e-015 6.36111e-015 -3.18055e-015 -101.709 -12.8564 -59.4789 -98.9831 38.389 -16.2174 21.7025 25.3637 -26.7692 48.772 -0.717196 -20.4215 107.555 -54.5191 99.2425 32.6016 41.0591 48.1574 14.4925 29.8464 1.92305 48.1114 5.23766 -53.5005 -30.1241 11.4632 108.223 23.7043 4.61626 14.5486 -1.80353e-010 1.55988e-007 -4.8394e-009 
